<svg xmlns="http://www.w3.org/2000/svg" viewBox="0 0 100 100" width="100" height="100">
  <g stroke="#14121e" stroke-width="3" stroke-linejoin="round" stroke-linecap="round">
    <ellipse cx="50" cy="58" rx="29" ry="31" fill="#cda07a"/>
    <path d="M22 48 q28 -24 56 0 q-8 -2 -12 -8 q-16 6 -32 0 q-4 6 -12 8 z" fill="#1f1b2a"/>
    <!-- óculos redondos -->
    <circle cx="40" cy="56" r="8.5" fill="#cfe9ff" fill-opacity="0.45" stroke="#2b2740" stroke-width="2.5"/>
    <circle cx="60" cy="56" r="8.5" fill="#cfe9ff" fill-opacity="0.45" stroke="#2b2740" stroke-width="2.5"/>
    <path d="M48.5 56 h3" stroke="#2b2740" stroke-width="2.5"/>
    <circle cx="40" cy="57" r="2.2" fill="#14121e" stroke="none"/>
    <circle cx="60" cy="57" r="2.2" fill="#14121e" stroke="none"/>
    <path d="M50 62 v6" fill="none" stroke-width="3"/>
    <path d="M45 73 q5 3 10 0" fill="none" stroke-width="2.5"/>
    <!-- fone de ouvido -->
    <path d="M19 56 q0 -30 31 -30 q31 0 31 30" fill="none" stroke="#33304a" stroke-width="4"/>
    <rect x="14" y="54" width="9" height="16" rx="4" fill="#33304a"/>
    <rect x="77" y="54" width="9" height="16" rx="4" fill="#33304a"/>
    <path d="M77 66 q-10 6 -18 6" fill="none" stroke="#33304a" stroke-width="3"/>
  </g>
</svg>
