<svg xmlns="http://www.w3.org/2000/svg" viewBox="0 0 100 100" width="100" height="100">
  <g stroke="#14121e" stroke-width="3" stroke-linejoin="round" stroke-linecap="round">
    <circle cx="20" cy="56" r="6" fill="#caa07c"/>
    <circle cx="80" cy="56" r="6" fill="#caa07c"/>
    <ellipse cx="50" cy="56" rx="29" ry="31" fill="#caa07c"/>
    <!-- cabelo penteado p/ trás -->
    <path d="M22 46 q28 -24 56 0 q-6 -10 -28 -10 q-22 0 -28 10 z" fill="#23202f"/>
    <path d="M28 40 q22 -8 44 0" fill="none" stroke="#3a3550" stroke-width="2"/>
    <circle cx="40" cy="54" r="4.5" fill="#ffffff" stroke="none"/>
    <circle cx="60" cy="54" r="4.5" fill="#ffffff" stroke="none"/>
    <circle cx="41" cy="55" r="2.2" fill="#14121e" stroke="none"/>
    <circle cx="61" cy="55" r="2.2" fill="#14121e" stroke="none"/>
    <path d="M50 58 v6" fill="none" stroke-width="3"/>
    <path d="M44 71 q6 4 12 0" fill="none" stroke-width="2.5"/>
    <!-- colarinho + gravata -->
    <path d="M34 86 l10 -8 6 6 6 -6 10 8" fill="none" stroke-width="4"/>
    <path d="M50 84 l-5 -6 5 -3 5 3 z" fill="#ffd24a"/>
  </g>
</svg>
