<svg xmlns="http://www.w3.org/2000/svg" viewBox="0 0 100 100" width="100" height="100">
  <g stroke="#14121e" stroke-width="3" stroke-linejoin="round" stroke-linecap="round">
    <circle cx="20" cy="58" r="6" fill="#bd8c63"/>
    <circle cx="80" cy="58" r="6" fill="#bd8c63"/>
    <ellipse cx="50" cy="58" rx="29" ry="31" fill="#bd8c63"/>
    <!-- cabelo penteado -->
    <path d="M21 48 q29 -26 58 0 q-6 -2 -10 -8 q-19 8 -38 0 q-4 6 -10 8 z" fill="#1f1b2a"/>
    <!-- óculos escuros -->
    <path d="M28 54 h44 v3 h-44 z" fill="#14121e" stroke="none"/>
    <rect x="29" y="52" width="18" height="12" rx="5" fill="#14121e" stroke="#0a0810" stroke-width="1.5"/>
    <rect x="53" y="52" width="18" height="12" rx="5" fill="#14121e" stroke="#0a0810" stroke-width="1.5"/>
    <path d="M30 56 l6 4" stroke="#3a3550" stroke-width="2"/>
    <path d="M54 56 l6 4" stroke="#3a3550" stroke-width="2"/>
    <path d="M50 64 v6" fill="none" stroke-width="3"/>
    <path d="M44 75 q6 3 12 0" fill="none" stroke-width="2.5"/>
    <!-- gola alta -->
    <path d="M30 86 l8 -8 12 6 12 -6 8 8" fill="none" stroke-width="4"/>
  </g>
</svg>
