<svg xmlns="http://www.w3.org/2000/svg" viewBox="0 0 100 100" width="100" height="100">
  <g stroke="#14121e" stroke-width="3" stroke-linejoin="round" stroke-linecap="round">
    <circle cx="20" cy="58" r="6" fill="#c89b72"/>
    <circle cx="80" cy="58" r="6" fill="#c89b72"/>
    <ellipse cx="50" cy="58" rx="29" ry="31" fill="#c89b72"/>
    <!-- careca / cabelo lateral -->
    <path d="M21 56 q2 -16 14 -18 q-6 8 -6 16 z" fill="#5a5366"/>
    <path d="M79 56 q-2 -16 -14 -18 q6 8 6 16 z" fill="#5a5366"/>
    <!-- óculos redondos -->
    <circle cx="40" cy="56" r="9" fill="#cfe9ff" fill-opacity="0.5" stroke="#33304a" stroke-width="2.5"/>
    <circle cx="60" cy="56" r="9" fill="#cfe9ff" fill-opacity="0.5" stroke="#33304a" stroke-width="2.5"/>
    <path d="M49 56 h2" stroke="#33304a" stroke-width="2.5"/>
    <circle cx="40" cy="57" r="2.3" fill="#14121e" stroke="none"/>
    <circle cx="60" cy="57" r="2.3" fill="#14121e" stroke="none"/>
    <path d="M50 62 v6" fill="none" stroke-width="3"/>
    <path d="M45 72 q5 3 10 0" fill="none" stroke-width="2.5"/>
    <!-- cavanhaque -->
    <path d="M44 78 q6 8 12 0 q-2 8 -6 9 q-4 -1 -6 -9 z" fill="#5a5366" stroke="none"/>
  </g>
</svg>
