<svg xmlns="http://www.w3.org/2000/svg" viewBox="0 0 100 100" width="100" height="100">
  <g stroke="#14121e" stroke-width="3" stroke-linejoin="round" stroke-linecap="round">
    <ellipse cx="50" cy="60" rx="27" ry="29" fill="#b98a64"/>
    <!-- capuz -->
    <path d="M16 64 q-4 -44 34 -46 q38 2 34 46 q-10 -22 -34 -22 q-24 0 -34 22 z" fill="#2a2f3e"/>
    <path d="M22 60 q4 -16 28 -16 q24 0 28 16 l-2 8 q-8 -16 -26 -16 q-18 0 -26 16 z" fill="#1d2230" stroke="none"/>
    <circle cx="41" cy="60" r="4.5" fill="#19e0c8" stroke="none"/>
    <circle cx="59" cy="60" r="4.5" fill="#19e0c8" stroke="none"/>
    <circle cx="42" cy="61" r="2" fill="#0c1a1e" stroke="none"/>
    <circle cx="60" cy="61" r="2" fill="#0c1a1e" stroke="none"/>
    <path d="M50 64 v7" fill="none" stroke-width="3"/>
    <path d="M43 78 q7 3 14 0" fill="none" stroke-width="2.5"/>
  </g>
</svg>
