<svg xmlns="http://www.w3.org/2000/svg" viewBox="0 0 100 100" width="100" height="100">
  <g stroke="#14121e" stroke-width="3" stroke-linejoin="round" stroke-linecap="round">
    <ellipse cx="50" cy="60" rx="26" ry="28" fill="#a87c52"/>
    <!-- capuz -->
    <path d="M18 64 q-4 -44 32 -46 q36 2 32 46 q-10 -24 -32 -24 q-22 0 -32 24 z" fill="#2a2440"/>
    <path d="M22 60 q8 -22 28 -22 q20 0 28 22 q-6 -8 -28 -8 q-22 0 -28 8 z" fill="#3a3060"/>
    <!-- olhos na sombra -->
    <circle cx="40" cy="60" r="3.5" fill="#ffd24a" stroke="none"/>
    <circle cx="60" cy="60" r="3.5" fill="#ffd24a" stroke="none"/>
    <path d="M43 74 q7 4 14 0" fill="none" stroke-width="2.5"/>
    <path d="M30 88 l8 -8 12 5 12 -5 8 8" fill="none" stroke-width="4"/>
  </g>
</svg>
