<svg xmlns="http://www.w3.org/2000/svg" viewBox="0 0 100 100" width="100" height="100">
  <g stroke="#14121e" stroke-width="3" stroke-linejoin="round" stroke-linecap="round">
    <circle cx="20" cy="58" r="6" fill="#d8c0a8"/>
    <circle cx="80" cy="58" r="6" fill="#d8c0a8"/>
    <ellipse cx="50" cy="58" rx="29" ry="31" fill="#d8c0a8"/>
    <!-- cartola -->
    <rect x="40" y="44" width="20" height="6" rx="2" fill="#1a1722"/>
    <path d="M24 44 h52 q3 0 3 3 t-3 3 h-52 q-3 0 -3 -3 t3 -3 z" fill="#1a1722"/>
    <rect x="36" y="20" width="28" height="26" rx="3" fill="#1a1722"/>
    <rect x="36" y="38" width="28" height="5" fill="#7a1f3a" stroke="none"/>
    <!-- monóculo -->
    <circle cx="60" cy="58" r="9" fill="none" stroke="#ffd24a" stroke-width="2.5"/>
    <path d="M68 60 l5 14" fill="none" stroke="#ffd24a" stroke-width="2"/>
    <circle cx="40" cy="57" r="4" fill="#ffffff" stroke="none"/>
    <circle cx="40" cy="58" r="2" fill="#14121e" stroke="none"/>
    <circle cx="60" cy="58" r="2.4" fill="#14121e" stroke="none"/>
    <path d="M50 60 v6" fill="none" stroke-width="2.5"/>
    <path d="M45 73 q5 3 10 0" fill="none" stroke-width="2.5"/>
  </g>
</svg>
