<svg xmlns="http://www.w3.org/2000/svg" viewBox="0 0 100 100" width="100" height="100">
  <g stroke="#14121e" stroke-width="3" stroke-linejoin="round" stroke-linecap="round">
    <circle cx="22" cy="58" r="6" fill="#c89b72"/>
    <circle cx="78" cy="58" r="6" fill="#c89b72"/>
    <ellipse cx="50" cy="58" rx="29" ry="31" fill="#c89b72"/>
    <path d="M21 44 q29 -22 58 0 q5 5 -2 9 h-54 q-7 -4 -2 -9 z" fill="#33304a"/>
    <path d="M17 52 q-2 -6 6 -7 l24 2 q-6 7 -30 5 z" fill="#33304a"/>
    <circle cx="40" cy="56" r="4.5" fill="#ffffff" stroke="none"/>
    <circle cx="60" cy="56" r="4.5" fill="#ffffff" stroke="none"/>
    <circle cx="41" cy="57" r="2.2" fill="#14121e" stroke="none"/>
    <circle cx="61" cy="57" r="2.2" fill="#14121e" stroke="none"/>
    <path d="M50 60 v8" fill="none" stroke-width="3"/>
    <path d="M38 71 q12 7 24 0" fill="none" stroke="#9a94a6" stroke-width="5"/>
    <path d="M44 77 q6 3 12 0" fill="none" stroke-width="2.5"/>
  </g>
</svg>
