<svg xmlns="http://www.w3.org/2000/svg" viewBox="0 0 100 100" width="100" height="100">
  <g stroke="#14121e" stroke-width="3" stroke-linejoin="round" stroke-linecap="round">
    <circle cx="20" cy="60" r="6" fill="#d2a17a"/>
    <circle cx="80" cy="60" r="6" fill="#d2a17a"/>
    <ellipse cx="50" cy="60" rx="31" ry="30" fill="#d2a17a"/>
    <path d="M19 42 q31 -16 62 0 l-3 9 q-28 -10 -56 0 z" fill="#c0392b"/>
    <path d="M76 44 l10 -4 -2 12 -10 -2 z" fill="#c0392b"/>
    <circle cx="40" cy="56" r="4.5" fill="#ffffff" stroke="none"/>
    <circle cx="60" cy="56" r="4.5" fill="#ffffff" stroke="none"/>
    <circle cx="40" cy="57" r="2.2" fill="#14121e" stroke="none"/>
    <circle cx="60" cy="57" r="2.2" fill="#14121e" stroke="none"/>
    <path d="M50 60 v7" fill="none" stroke-width="3"/>
    <path d="M34 70 q8 9 16 2 q8 7 16 -2" fill="none" stroke="#2f2620" stroke-width="6"/>
    <path d="M44 80 q6 3 12 0" fill="none" stroke-width="2.5"/>
  </g>
</svg>
